<svg baseProfile="full" height="200" version="1.1" width="200" xmlns="http://www.w3.org/2000/svg" xmlns:ev="http://www.w3.org/2001/xml-events" xmlns:xlink="http://www.w3.org/1999/xlink"><defs><style type="text/css"><![CDATA[.background path {fill: #808080; fill-opacity: 0}.background path:nth-child(odd) {fill-opacity: .1}.x-regions rect {fill: yellow; stroke: black; opacity: 0.5}.axes {font-size: 14px}.x-axis .tick .lab {font-weight: bold; dominant-baseline: hanging}.axes, .tree {font-size: 14px; text-anchor: middle}.axes line, .edge {stroke: black; fill: none}.axes .ax-skip {stroke-dasharray: 4}.y-axis .grid {stroke: #FAFAFA}.node > .sym {fill: black; stroke: none}.site > .sym {stroke: black}.mut text {fill: red; font-style: italic}.mut.extra text {fill: hotpink}.mut line {fill: none; stroke: none}.mut .sym {fill: none; stroke: red}.mut.extra .sym {stroke: hotpink}.node .mut .sym {stroke-width: 1.5px}.tree text, .tree-sequence text {dominant-baseline: central}.plotbox .lab.lft {text-anchor: end}.plotbox .lab.rgt {text-anchor: start}.polytomy line {stroke: black; stroke-dasharray: 1px, 1px}.polytomy text {paint-order:stroke;stroke-width:0.3em;stroke:white}]]></style></defs><g class="tree t0"><g class="plotbox"><g class="c2 node n37 p4 root" transform="translate(122.5 26.8)"><g class="a37 c2 node n11 p2" transform="translate(37.5 133.237)"><g class="a11 i6 leaf node n6 p2 sample" transform="translate(-10 8.16297)"><path class="edge e7" d="M 0 0 V -8.16297 H 10"/><rect class="sym" height="6" width="6" x="-3" y="-3"/><text class="lab" transform="translate(0 11)">o0</text></g><g class="a11 i7 leaf node n7 p2 sample" transform="translate(10 8.16297)"><path class="edge e8" d="M 0 0 V -8.16297 H -10"/><rect class="sym" height="6" width="6" x="-3" y="-3"/><text class="lab" transform="translate(0 11)">o1</text></g><path class="edge e92" d="M 0 0 V -133.237 H -37.5"/><circle class="sym" cx="0" cy="0" r="3"/><text class="lab rgt" transform="translate(3 -7)"/></g><g class="a37 c2 node n24 p3" transform="translate(-37.5 90.2308)"><g class="a24 c2 node n13 p3" transform="translate(30 41.4021)"><g class="a13 i4 leaf node n4 p1 sample" transform="translate(15 9.76707)"><path class="edge e11" d="M 0 0 V -9.76707 H -15"/><rect class="sym" height="6" width="6" x="-3" y="-3"/><text class="lab" transform="translate(0 11)">i4</text></g><g class="a13 c2 node n12 p3" transform="translate(-15 0.880017)"><g class="a12 i3 leaf node n3 p1 sample" transform="translate(-10 8.88706)"><path class="edge e9" d="M 0 0 V -8.88706 H 10"/><rect class="sym" height="6" width="6" x="-3" y="-3"/><text class="lab" transform="translate(0 11)">i3</text></g><g class="a12 i5 leaf node n5 p1 sample" transform="translate(10 8.88706)"><path class="edge e10" d="M 0 0 V -8.88706 H -10"/><rect class="sym" height="6" width="6" x="-3" y="-3"/><text class="lab" transform="translate(0 11)">i5</text></g><path class="edge e12" d="M 0 0 V -0.880017 H 15"/><circle class="sym" cx="0" cy="0" r="3"/><text class="lab lft" transform="translate(-3 -7)"/></g><path class="edge e49" d="M 0 0 V -41.4021 H -30"/><circle class="sym" cx="0" cy="0" r="3"/><text class="lab rgt" transform="translate(3 -7)"/></g><g class="a24 c2 node n18 p3" transform="translate(-30 29.9253)"><g class="a18 i2 leaf node n2 p0 sample" transform="translate(15 21.2439)"><path class="edge e25" d="M 0 0 V -21.2439 H -15"/><rect class="sym" height="6" width="6" x="-3" y="-3"/><text class="lab" transform="translate(0 11)">i2</text></g><g class="a18 c2 node n10 p0" transform="translate(-15 13.7767)"><g class="a10 i0 leaf node n0 p0 sample" transform="translate(-10 7.46722)"><path class="edge e5" d="M 0 0 V -7.46722 H 10"/><rect class="sym" height="6" width="6" x="-3" y="-3"/><text class="lab" transform="translate(0 11)">i0</text></g><g class="a10 i1 leaf node n1 p0 sample" transform="translate(10 7.46722)"><path class="edge e6" d="M 0 0 V -7.46722 H -10"/><rect class="sym" height="6" width="6" x="-3" y="-3"/><text class="lab" transform="translate(0 11)">i1</text></g><path class="edge e27" d="M 0 0 V -13.7767 H 15"/><circle class="sym" cx="0" cy="0" r="3"/><text class="lab lft" transform="translate(-3 -7)"/></g><path class="edge e50" d="M 0 0 V -29.9253 H 30"/><circle class="sym" cx="0" cy="0" r="3"/><text class="lab lft" transform="translate(-3 -7)"/></g><path class="edge e93" d="M 0 0 V -90.2308 H 37.5"/><circle class="sym" cx="0" cy="0" r="3"/><text class="lab lft" transform="translate(-3 -7)"/></g><circle class="sym" cx="0" cy="0" r="3"/><text class="lab" transform="translate(0 -11)"/></g></g></g></svg>